<?xml version="1.0" encoding="UTF-8"?><svg id="a" xmlns="http://www.w3.org/2000/svg" viewBox="0 0 1000 1000"><defs><style>.b{fill:#3c6076;}</style></defs><polygon class="b" points="886.4 141.4 886.4 71.95 674.75 71.95 674.75 0 557.29 0 442.71 0 325.25 0 325.25 71.95 113.6 71.95 113.6 141.4 0 141.4 49.28 247.37 49.28 247.37 442.71 247.37 557.29 247.37 950.72 247.37 950.72 247.37 1000 141.4 886.4 141.4"/><path class="b" d="M922.7,716.22V318.95h-103.16V920.03h-72.66V318.95H252.03V920.03h-72.66V318.95H76.21v397.26L2.18,783.44v216.28l355.72,.28v-326.22c9.52-61.33,69.25-108.6,141.56-108.6s131.98,47.22,141.55,108.51v326.31l355.72-.28v-216.28l-74.03-67.22ZM357.9,463.14v-73.77h283.11v73.77H357.9Z"/></svg>